# xmcd
#
# Track frame offsets:
#	150
#	12016
#	24191
#	36879
#	49153
#	59730
#	69747
#	83679
#	96580
#	110953
#	123056
#	135483
#	147203
#	161176
#	171983
#	185449
#	199604
#	210930
#	224572
#	237327
#	246932
#	258996
#	271913
#	286432
#	297515
#	310700
#	323278
#	336918
#	348985
#
# Disc length: 4798 seconds
#
# Revision: 1
# Processed by: cddbd v1.5.2PL0 Copyright (c) Steve Scherf et al.
# Submitted via: audiograbber 1.83.01
#
DISCID=b912bc1d
DTITLE=Various Artist - Dim Lights, Thick Smoke And Hillbilly Music  1951
DYEAR=1951
DGENRE=Country
TTITLE0=Tennessee Ernie Ford - The Shot Gun Boogie
TTITLE1=Elton Britt - Rotation Blues
TTITLE2=Hank Snow - The Golden Rocket
TTITLE3=Hank Williams - Cold Cold Heart
TTITLE4=Johnny and Jack - Poison Love
TTITLE5=Eddy Arnold - I Wanna Play House with You
TTITLE6=Lefty Frizzell - Mom And Dad's Waltz
TTITLE7=Carl Smith - Let's Live A Little
TTITLE8=The Pinetoppers - Mockin' Bird Hill
TTITLE9=Johnny Bond - Sick, Sober And Sorry
TTITLE10=Moon Mullican - I Was Sorta Wonderin'
TTITLE11=Big Jeff - Step It Up And Go
TTITLE12=Lefty Frizzell - Always Late (With Your Kisses)
TTITLE13=The Carlisles - Too Old To Cut The Mustard
TTITLE14=Eddie Hill - The Hot Guitar
TTITLE15=Curley Williams - Half As Much
TTITLE16=Bill Haley - Rocket '88'
TTITLE17=Pee Wee King - Slow Poke
TTITLE18=Hank Snow - The Rhumba Boogie
TTITLE19=The Stewart Family - Just Out Of Reach (Of My Two Open Arms)
TTITLE20=Zeb Turner - Chew Tobacco Rag
TTITLE21=Carl Smith - Let Old Mother Nature Have Her Way
TTITLE22=Red Foley - (There'll Be) Peace In The Valley (For Me)
TTITLE23=Jimmy Murphy - Electricity
TTITLE24=Hank Williams - Hey Good Lookin'
TTITLE25=Bill Monroe - Uncle Pen
TTITLE26=Mac Wiseman - Tis Sweet To Be Remembered
TTITLE27=Jess Willard - Honky Tonk Hardwood Floor
TTITLE28=Del Wood - Down Yonder
EXTD=
EXTT0=
EXTT1=
EXTT2=
EXTT3=
EXTT4=
EXTT5=
EXTT6=
EXTT7=
EXTT8=
EXTT9=
EXTT10=
EXTT11=
EXTT12=
EXTT13=
EXTT14=
EXTT15=
EXTT16=
EXTT17=
EXTT18=
EXTT19=
EXTT20=
EXTT21=
EXTT22=
EXTT23=
EXTT24=
EXTT25=
EXTT26=
EXTT27=
EXTT28=
PLAYORDER=
